<?xml version="1.0" encoding="utf-8"?>
<!-- Generator: Adobe Illustrator 26.3.1, SVG Export Plug-In . SVG Version: 6.00 Build 0)  -->
<svg version="1.1" id="Слой_1" xmlns="http://www.w3.org/2000/svg" xmlns:xlink="http://www.w3.org/1999/xlink" x="0px" y="0px"
	 viewBox="0 0 800 800" style="enable-background:new 0 0 800 800;" xml:space="preserve">
<style type="text/css">
	.st0{fill:#5FBAAA;}
	.st1{fill:#020203;}
</style>
<g>
	<path class="st0" d="M401,466.3l-49.4-48.2c-5.1-3.8-33-29.2-33-54.5c0-27.9,22.8-49.4,49.4-49.4c12.7,0,24.1,3.8,33,12.7
		c8.9-7.6,20.3-12.7,33-12.7c27.9,0,49.4,22.8,49.4,49.4c0,25.4-29.2,49.4-34.2,54.5L401,466.3z M368,339.5
		c-13.9,0-24.1,11.4-24.1,24.1c0,10.1,13.9,26.6,24.1,35.5l31.7,31.7l30.4-30.4c11.4-8.9,25.4-26.6,25.4-35.5
		c0-13.9-11.4-24.1-24.1-24.1c-8.9,0-17.8,5.1-21.6,12.7l-11.4,20.3L387,353.5C384.5,344.6,376.9,339.5,368,339.5z"/>
	<path class="st0" d="M652,661.6L652,661.6H148.7c0,0,0,0-1.3,0s-3.8,0-5.1-1.3c-1.3-1.3-2.5-1.3-3.8-3.8c-1.3-1.3-1.3-2.5-2.5-3.8
		l0,0l0,0c0-1.3,0-2.5,0-3.8v-298c0-1.3,0-2.5,0-3.8c0,0,0-1.3,1.3-1.3c0-1.3,1.3-2.5,2.5-2.5l1.3-1.3l218.1-183.8
		c24.1-20.3,58.3-20.3,81.1,0L658.4,342l1.3,1.3c1.3,1.3,1.3,2.5,2.5,2.5c0,0,0,1.3,1.3,1.3c0,1.3,0,2.5,0,3.8v298
		c0,1.3,0,2.5,0,3.8l0,0l0,0c0,1.3-1.3,2.5-2.5,3.8c-1.3,1.3-2.5,2.5-3.8,3.8C655.8,661.6,654.6,661.6,652,661.6L652,661.6z
		 M188,636.2h424.7L423.8,499.3l0,0c-13.9-10.1-33-10.1-46.9,0l0,0L188,636.2z M454.2,490.4l185.1,134.4v-251l-91.3,57.1l0,0
		L454.2,490.4z M161.4,373.7v251l185.1-134.4l-93.8-59.6l0,0L161.4,373.7z M401,467.6c10.1,0,21.6,2.5,30.4,7.6l97.6-60.9v-109
		H271.7v109l97.6,60.9C379.4,470.1,389.6,467.6,401,467.6z M170.2,349.7l76.1,48.2V292.6c0-7.6,5.1-12.7,12.7-12.7h282.7
		c7.6,0,12.7,5.1,12.7,12.7v105.2l76.1-48.2L425.1,177.2c-13.9-11.4-34.2-11.4-49.4,0L170.2,349.7z"/>
	<path class="st1" d="M401,463.8l-45.6-43.1c-2.5-2.5-30.4-26.6-30.4-49.4c0-24.1,19-43.1,43.1-43.1c12.7,0,24.1,5.1,33,15.2
		c7.6-8.9,20.3-15.2,33-15.2c24.1,0,43.1,19,43.1,43.1c0,22.8-29.2,46.9-31.7,49.4L401,463.8z M368,340.8
		c-16.5,0-30.4,13.9-30.4,30.4c0,13.9,19,34.2,26.6,40.6l36.8,35.5l35.5-35.5c7.6-6.3,27.9-26.6,27.9-40.6
		c0-16.5-13.9-30.4-30.4-30.4c-11.4,0-21.6,6.3-26.6,16.5l-5.1,10.1l-5.1-10.1C389.6,345.8,379.4,340.8,368,340.8z"/>
	<path class="st1" d="M652,662.8L652,662.8H148.7l0,0c-1.3,0-1.3,0-2.5-1.3c-1.3,0-1.3-1.3-2.5-1.3c0,0-1.3-1.3-1.3-2.5l0,0l0,0
		c0-1.3,0-1.3,0-2.5V358.5v-1.3c0,0,0,0,0-1.3c0,0,0-1.3,1.3-1.3c0,0,0,0,1.3-1.3l219.3-183.8c21.6-17.8,52-17.8,73.5,0l219.3,183.8
		c0,0,0,0,1.3,1.3l1.3,1.3c0,0,0,0,0,1.3v1.3v298c0,1.3,0,1.3,0,2.5l0,0l0,0c0,1.3,0,1.3-1.3,2.5c0,1.3-1.3,1.3-2.5,1.3
		C654.6,662.8,653.3,662.8,652,662.8L652,662.8z M169,650.1H633L428.9,501.8l0,0c-16.5-11.4-38-11.4-54.5,0l0,0L169,650.1z
		 M442.8,498l202.9,147.1V371.2l-100.2,63.4l0,0L442.8,498z M155,369.9v273.9L357.9,498l-102.7-64.7l0,0L155,369.9z M401,480.2
		c10.1,0,21.6,2.5,31.7,8.9l104-65.9V304H265.3v119.2l104,65.9C379.4,484,389.6,480.2,401,480.2z M160.1,357.3l93.8,58.3V298.9
		c0-3.8,2.5-6.3,6.3-6.3H543c3.8,0,6.3,2.5,6.3,6.3v116.6l93.8-58.3L431.4,178.5c-16.5-13.9-40.6-13.9-57.1,0L160.1,357.3z"/>
</g>
</svg>
